<svg width="564" height="10" viewBox="0 0 564 10" fill="none" xmlns="http://www.w3.org/2000/svg">
<path d="M4.82333 9.928C3.43133 9.928 2.35133 9.568 1.58333 8.848C0.863332 8.08 0.503332 7 0.503332 5.608V4.384C0.503332 2.992 0.863332 1.936 1.58333 1.216C2.35133 0.447999 3.43133 0.0639992 4.82333 0.0639992H5.75933C7.15133 0.0639992 8.20733 0.447999 8.92733 1.216C9.69533 1.936 10.0793 2.992 10.0793 4.384V5.608C10.0793 7 9.69533 8.08 8.92733 8.848C8.20733 9.568 7.15133 9.928 5.75933 9.928H4.82333ZM44.353 9.928C42.961 9.928 41.881 9.568 41.113 8.848C40.393 8.08 40.033 7 40.033 5.608V4.384C40.033 2.992 40.393 1.936 41.113 1.216C41.881 0.447999 42.961 0.0639992 44.353 0.0639992H45.289C46.681 0.0639992 47.737 0.447999 48.457 1.216C49.225 1.936 49.609 2.992 49.609 4.384V5.608C49.609 7 49.225 8.08 48.457 8.848C47.737 9.568 46.681 9.928 45.289 9.928H44.353ZM83.8827 9.928C82.4907 9.928 81.4107 9.568 80.6427 8.848C79.9227 8.08 79.5627 7 79.5627 5.608V4.384C79.5627 2.992 79.9227 1.936 80.6427 1.216C81.4107 0.447999 82.4907 0.0639992 83.8827 0.0639992H84.8187C86.2107 0.0639992 87.2667 0.447999 87.9867 1.216C88.7547 1.936 89.1387 2.992 89.1387 4.384V5.608C89.1387 7 88.7547 8.08 87.9867 8.848C87.2667 9.568 86.2107 9.928 84.8187 9.928H83.8827ZM123.412 9.928C122.02 9.928 120.94 9.568 120.172 8.848C119.452 8.08 119.092 7 119.092 5.608V4.384C119.092 2.992 119.452 1.936 120.172 1.216C120.94 0.447999 122.02 0.0639992 123.412 0.0639992H124.348C125.74 0.0639992 126.796 0.447999 127.516 1.216C128.284 1.936 128.668 2.992 128.668 4.384V5.608C128.668 7 128.284 8.08 127.516 8.848C126.796 9.568 125.74 9.928 124.348 9.928H123.412ZM162.942 9.928C161.55 9.928 160.47 9.568 159.702 8.848C158.982 8.08 158.622 7 158.622 5.608V4.384C158.622 2.992 158.982 1.936 159.702 1.216C160.47 0.447999 161.55 0.0639992 162.942 0.0639992H163.878C165.27 0.0639992 166.326 0.447999 167.046 1.216C167.814 1.936 168.198 2.992 168.198 4.384V5.608C168.198 7 167.814 8.08 167.046 8.848C166.326 9.568 165.27 9.928 163.878 9.928H162.942ZM202.472 9.928C201.08 9.928 200 9.568 199.232 8.848C198.512 8.08 198.152 7 198.152 5.608V4.384C198.152 2.992 198.512 1.936 199.232 1.216C200 0.447999 201.08 0.0639992 202.472 0.0639992H203.408C204.8 0.0639992 205.856 0.447999 206.576 1.216C207.344 1.936 207.728 2.992 207.728 4.384V5.608C207.728 7 207.344 8.08 206.576 8.848C205.856 9.568 204.8 9.928 203.408 9.928H202.472ZM242.001 9.928C240.609 9.928 239.529 9.568 238.761 8.848C238.041 8.08 237.681 7 237.681 5.608V4.384C237.681 2.992 238.041 1.936 238.761 1.216C239.529 0.447999 240.609 0.0639992 242.001 0.0639992H242.937C244.329 0.0639992 245.385 0.447999 246.105 1.216C246.873 1.936 247.257 2.992 247.257 4.384V5.608C247.257 7 246.873 8.08 246.105 8.848C245.385 9.568 244.329 9.928 242.937 9.928H242.001ZM281.531 9.928C280.139 9.928 279.059 9.568 278.291 8.848C277.571 8.08 277.211 7 277.211 5.608V4.384C277.211 2.992 277.571 1.936 278.291 1.216C279.059 0.447999 280.139 0.0639992 281.531 0.0639992H282.467C283.859 0.0639992 284.915 0.447999 285.635 1.216C286.403 1.936 286.787 2.992 286.787 4.384V5.608C286.787 7 286.403 8.08 285.635 8.848C284.915 9.568 283.859 9.928 282.467 9.928H281.531ZM321.061 9.928C319.669 9.928 318.589 9.568 317.821 8.848C317.101 8.08 316.741 7 316.741 5.608V4.384C316.741 2.992 317.101 1.936 317.821 1.216C318.589 0.447999 319.669 0.0639992 321.061 0.0639992H321.997C323.389 0.0639992 324.445 0.447999 325.165 1.216C325.933 1.936 326.317 2.992 326.317 4.384V5.608C326.317 7 325.933 8.08 325.165 8.848C324.445 9.568 323.389 9.928 321.997 9.928H321.061ZM360.591 9.928C359.199 9.928 358.119 9.568 357.351 8.848C356.631 8.08 356.271 7 356.271 5.608V4.384C356.271 2.992 356.631 1.936 357.351 1.216C358.119 0.447999 359.199 0.0639992 360.591 0.0639992H361.527C362.919 0.0639992 363.975 0.447999 364.695 1.216C365.463 1.936 365.847 2.992 365.847 4.384V5.608C365.847 7 365.463 8.08 364.695 8.848C363.975 9.568 362.919 9.928 361.527 9.928H360.591ZM400.12 9.928C398.728 9.928 397.648 9.568 396.88 8.848C396.16 8.08 395.8 7 395.8 5.608V4.384C395.8 2.992 396.16 1.936 396.88 1.216C397.648 0.447999 398.728 0.0639992 400.12 0.0639992H401.056C402.448 0.0639992 403.504 0.447999 404.224 1.216C404.992 1.936 405.376 2.992 405.376 4.384V5.608C405.376 7 404.992 8.08 404.224 8.848C403.504 9.568 402.448 9.928 401.056 9.928H400.12ZM439.65 9.928C438.258 9.928 437.178 9.568 436.41 8.848C435.69 8.08 435.33 7 435.33 5.608V4.384C435.33 2.992 435.69 1.936 436.41 1.216C437.178 0.447999 438.258 0.0639992 439.65 0.0639992H440.586C441.978 0.0639992 443.034 0.447999 443.754 1.216C444.522 1.936 444.906 2.992 444.906 4.384V5.608C444.906 7 444.522 8.08 443.754 8.848C443.034 9.568 441.978 9.928 440.586 9.928H439.65ZM479.18 9.928C477.788 9.928 476.708 9.568 475.94 8.848C475.22 8.08 474.86 7 474.86 5.608V4.384C474.86 2.992 475.22 1.936 475.94 1.216C476.708 0.447999 477.788 0.0639992 479.18 0.0639992H480.116C481.508 0.0639992 482.564 0.447999 483.284 1.216C484.052 1.936 484.436 2.992 484.436 4.384V5.608C484.436 7 484.052 8.08 483.284 8.848C482.564 9.568 481.508 9.928 480.116 9.928H479.18ZM518.709 9.928C517.317 9.928 516.237 9.568 515.469 8.848C514.749 8.08 514.389 7 514.389 5.608V4.384C514.389 2.992 514.749 1.936 515.469 1.216C516.237 0.447999 517.317 0.0639992 518.709 0.0639992H519.645C521.037 0.0639992 522.093 0.447999 522.813 1.216C523.581 1.936 523.965 2.992 523.965 4.384V5.608C523.965 7 523.581 8.08 522.813 8.848C522.093 9.568 521.037 9.928 519.645 9.928H518.709ZM558.239 9.928C556.847 9.928 555.767 9.568 554.999 8.848C554.279 8.08 553.919 7 553.919 5.608V4.384C553.919 2.992 554.279 1.936 554.999 1.216C555.767 0.447999 556.847 0.0639992 558.239 0.0639992H559.175C560.567 0.0639992 561.623 0.447999 562.343 1.216C563.111 1.936 563.495 2.992 563.495 4.384V5.608C563.495 7 563.111 8.08 562.343 8.848C561.623 9.568 560.567 9.928 559.175 9.928H558.239Z" fill="white"/>
</svg>
